<svg width="41" height="41" viewBox="0 0 41 41" fill="none" xmlns="http://www.w3.org/2000/svg">
<path d="M39.2917 32.4583C39.2917 33.3645 38.9317 34.2335 38.291 34.8743C37.6502 35.515 36.7812 35.875 35.875 35.875H5.12504C4.21888 35.875 3.34984 35.515 2.70909 34.8743C2.06834 34.2335 1.70837 33.3645 1.70837 32.4583V13.6667C1.70837 12.7605 2.06834 11.8915 2.70909 11.2507C3.34984 10.61 4.21888 10.25 5.12504 10.25H11.9584L15.375 5.125H25.625L29.0417 10.25H35.875C36.7812 10.25 37.6502 10.61 38.291 11.2507C38.9317 11.8915 39.2917 12.7605 39.2917 13.6667V32.4583Z" stroke="#0A0A0A" stroke-width="2" stroke-linecap="round" stroke-linejoin="round"/>
<path d="M20.5 29.0417C24.2739 29.0417 27.3333 25.9823 27.3333 22.2083C27.3333 18.4344 24.2739 15.375 20.5 15.375C16.726 15.375 13.6666 18.4344 13.6666 22.2083C13.6666 25.9823 16.726 29.0417 20.5 29.0417Z" stroke="#0A0A0A" stroke-width="2" stroke-linecap="round" stroke-linejoin="round"/>
</svg>
