<svg width="45" height="41" viewBox="0 0 45 41" fill="none" xmlns="http://www.w3.org/2000/svg">
<path d="M5.625 30.75V20.5C5.625 16.4223 7.4029 12.5116 10.5676 9.62823C13.7322 6.74486 18.0245 5.125 22.5 5.125C26.9755 5.125 31.2677 6.74486 34.4324 9.62823C37.5971 12.5116 39.375 16.4223 39.375 20.5V30.75" stroke="#FEFEFE" stroke-width="2" stroke-linecap="round" stroke-linejoin="round"/>
<path d="M39.375 32.4583C39.375 33.3644 38.9799 34.2335 38.2766 34.8742C37.5734 35.515 36.6196 35.875 35.625 35.875H33.75C32.7554 35.875 31.8016 35.515 31.0984 34.8742C30.3951 34.2335 30 33.3644 30 32.4583V27.3333C30 26.4271 30.3951 25.5581 31.0984 24.9173C31.8016 24.2766 32.7554 23.9166 33.75 23.9166H39.375V32.4583ZM5.625 32.4583C5.625 33.3644 6.02009 34.2335 6.72335 34.8742C7.42661 35.515 8.38044 35.875 9.375 35.875H11.25C12.2446 35.875 13.1984 35.515 13.9017 34.8742C14.6049 34.2335 15 33.3644 15 32.4583V27.3333C15 26.4271 14.6049 25.5581 13.9017 24.9173C13.1984 24.2766 12.2446 23.9166 11.25 23.9166H5.625V32.4583Z" stroke="#FEFEFE" stroke-width="2" stroke-linecap="round" stroke-linejoin="round"/>
</svg>
