<svg width="45" height="42" viewBox="0 0 45 42" fill="none" xmlns="http://www.w3.org/2000/svg">
<path d="M5.625 31.25V21C5.625 16.9223 7.4029 13.0116 10.5676 10.1282C13.7322 7.24486 18.0245 5.625 22.5 5.625C26.9755 5.625 31.2677 7.24486 34.4324 10.1282C37.5971 13.0116 39.375 16.9223 39.375 21V31.25" stroke="#0A0A0A" stroke-width="2" stroke-linecap="round" stroke-linejoin="round"/>
<path d="M39.375 32.9583C39.375 33.8644 38.9799 34.7335 38.2766 35.3742C37.5734 36.015 36.6196 36.375 35.625 36.375H33.75C32.7554 36.375 31.8016 36.015 31.0984 35.3742C30.3951 34.7335 30 33.8644 30 32.9583V27.8333C30 26.9271 30.3951 26.0581 31.0984 25.4173C31.8016 24.7766 32.7554 24.4166 33.75 24.4166H39.375V32.9583ZM5.625 32.9583C5.625 33.8644 6.02009 34.7335 6.72335 35.3742C7.42661 36.015 8.38044 36.375 9.375 36.375H11.25C12.2446 36.375 13.1984 36.015 13.9017 35.3742C14.6049 34.7335 15 33.8644 15 32.9583V27.8333C15 26.9271 14.6049 26.0581 13.9017 25.4173C13.1984 24.7766 12.2446 24.4166 11.25 24.4166H5.625V32.9583Z" stroke="#0A0A0A" stroke-width="2" stroke-linecap="round" stroke-linejoin="round"/>
</svg>
