<svg width="88" height="70" viewBox="0 0 88 70" fill="none" xmlns="http://www.w3.org/2000/svg">
<path d="M-7.86781e-06 57.92C5.456 56.688 9.416 54.048 11.88 50C14.168 46.128 15.312 41.112 15.312 34.952H-7.86781e-06V0.632006H34.32V32.576C34.32 39.088 33.352 44.544 31.416 48.944C29.48 53.52 26.928 57.216 23.76 60.032C20.592 63.024 16.984 65.224 12.936 66.632C8.712 68.216 4.39999 69.272 -7.86781e-06 69.8V57.92ZM52.8 57.92C58.256 56.688 62.216 54.048 64.68 50C66.968 46.128 68.112 41.112 68.112 34.952H52.8V0.632006H87.12V32.576C87.12 39.088 86.152 44.544 84.216 48.944C82.28 53.52 79.728 57.216 76.56 60.032C73.392 63.024 69.784 65.224 65.736 66.632C61.512 68.216 57.2 69.272 52.8 69.8V57.92Z" fill="#003D73"/>
</svg>
