<svg width="378" height="53" viewBox="0 0 378 53" fill="none" xmlns="http://www.w3.org/2000/svg">
<rect y="0.5" width="165" height="52" rx="8.4" fill="white"/>
<path d="M24.7268 25.7464L11.1255 40.5083C11.1268 40.511 11.1268 40.5149 11.128 40.5175C11.5458 42.1204 12.9766 43.3 14.6756 43.3C15.3552 43.3 15.9927 43.1119 16.5394 42.7827L16.5829 42.7566L31.8922 33.7231L24.7268 25.7464Z" fill="#EA4335"/>
<path d="M38.4863 23.2326L38.4736 23.2235L31.8639 19.3057L24.4175 26.0818L31.8907 33.7214L38.4646 29.8428C39.6169 29.2053 40.4 27.963 40.4 26.5312C40.4 25.1073 39.6284 23.8714 38.4863 23.2326Z" fill="#FBBC04"/>
<path d="M11.1252 12.4906C11.0434 12.799 11 13.1229 11 13.4574V39.5429C11 39.8773 11.0434 40.2013 11.1265 40.5083L25.1941 26.1239L11.1252 12.4906Z" fill="#4285F4"/>
<path d="M24.8272 26.4998L31.8661 19.303L16.5747 10.2368C16.019 9.89583 15.3701 9.69988 14.6764 9.69988C12.9773 9.69988 11.544 10.8821 11.1263 12.4864C11.1263 12.4877 11.125 12.489 11.125 12.4903L24.8272 26.4998Z" fill="#34A853"/>
<path d="M55.93 19.688C56.3874 19.688 56.8214 19.618 57.232 19.478C57.6427 19.338 58.0114 19.1327 58.338 18.862C58.674 18.582 58.9587 18.2413 59.192 17.84C59.4254 17.4387 59.5934 16.972 59.696 16.44H55.93V15.39H60.872C60.872 16.2207 60.7367 16.9673 60.466 17.63C60.1954 18.2833 59.8314 18.8387 59.374 19.296C58.926 19.7533 58.4034 20.1033 57.806 20.346C57.2087 20.5887 56.5834 20.71 55.93 20.71C55.2114 20.71 54.5394 20.5747 53.914 20.304C53.2887 20.0333 52.7474 19.6693 52.29 19.212C51.8327 18.7453 51.4734 18.204 51.212 17.588C50.9507 16.9627 50.82 16.3 50.82 15.6C50.82 14.9 50.9554 14.242 51.226 13.626C51.4967 13.0007 51.8607 12.4593 52.318 12.002C52.7847 11.5353 53.326 11.1667 53.942 10.896C54.5674 10.6253 55.23 10.49 55.93 10.49C56.4154 10.49 56.882 10.56 57.33 10.7C57.7874 10.8307 58.2074 11.0173 58.59 11.26C58.982 11.4933 59.3274 11.778 59.626 12.114C59.934 12.45 60.1814 12.8187 60.368 13.22H59.15C59.0007 12.9587 58.8094 12.7253 58.576 12.52C58.352 12.3053 58.1 12.128 57.82 11.988C57.54 11.8387 57.2367 11.7267 56.91 11.652C56.5927 11.568 56.2614 11.526 55.916 11.526C55.356 11.526 54.8287 11.6333 54.334 11.848C53.8487 12.0533 53.4287 12.3427 53.074 12.716C52.7194 13.08 52.4394 13.5093 52.234 14.004C52.0287 14.4987 51.926 15.0307 51.926 15.6C51.926 16.16 52.024 16.6873 52.22 17.182C52.416 17.6767 52.6914 18.1107 53.046 18.484C53.4007 18.848 53.8207 19.142 54.306 19.366C54.8007 19.5807 55.342 19.688 55.93 19.688ZM68.7022 18.68C68.5528 18.9693 68.3615 19.2353 68.1282 19.478C67.8948 19.7207 67.6335 19.9307 67.3442 20.108C67.0642 20.276 66.7562 20.4067 66.4202 20.5C66.0935 20.5933 65.7528 20.64 65.3982 20.64C64.8942 20.64 64.4228 20.5467 63.9842 20.36C63.5548 20.164 63.1815 19.9027 62.8642 19.576C62.5468 19.2493 62.2948 18.8667 62.1082 18.428C61.9308 17.98 61.8422 17.504 61.8422 17C61.8422 16.496 61.9308 16.0247 62.1082 15.586C62.2948 15.138 62.5468 14.7507 62.8642 14.424C63.1815 14.0973 63.5548 13.8407 63.9842 13.654C64.4228 13.458 64.8942 13.36 65.3982 13.36C65.9395 13.36 66.4342 13.458 66.8822 13.654C67.3302 13.85 67.7128 14.1253 68.0302 14.48C68.3475 14.8347 68.5948 15.2687 68.7722 15.782C68.9495 16.286 69.0382 16.8507 69.0382 17.476H62.9202C62.9762 17.7933 63.0742 18.0873 63.2142 18.358C63.3542 18.6193 63.5268 18.848 63.7322 19.044C63.9468 19.24 64.1942 19.394 64.4742 19.506C64.7542 19.618 65.0622 19.674 65.3982 19.674C65.8275 19.674 66.2242 19.5853 66.5882 19.408C66.9615 19.2307 67.2695 18.988 67.5122 18.68H68.7022ZM67.9182 16.524C67.8902 16.216 67.8015 15.9267 67.6522 15.656C67.5122 15.3853 67.3302 15.152 67.1062 14.956C66.8822 14.76 66.6208 14.606 66.3222 14.494C66.0328 14.382 65.7248 14.326 65.3982 14.326C65.0622 14.326 64.7542 14.382 64.4742 14.494C64.1942 14.606 63.9468 14.76 63.7322 14.956C63.5268 15.152 63.3542 15.3853 63.2142 15.656C63.0742 15.9267 62.9762 16.216 62.9202 16.524H67.9182ZM70.5786 11.666H71.5866V13.5H72.9866V14.452H71.5866V18.162C71.5866 18.6753 71.68 19.0347 71.8666 19.24C72.0626 19.4453 72.3426 19.548 72.7066 19.548H72.9866V20.5H72.7066C72.0533 20.5 71.5353 20.3273 71.1526 19.982C70.77 19.6273 70.5786 19.044 70.5786 18.232V14.452H69.5986V13.5H70.5786V11.666ZM77.8371 13.5H78.8451V20.5H77.8371V13.5ZM77.8371 10.7H78.8451V11.848H77.8371V10.7ZM81.0239 11.666H82.0319V13.5H83.4319V14.452H82.0319V18.162C82.0319 18.6753 82.1253 19.0347 82.3119 19.24C82.5079 19.4453 82.7879 19.548 83.1519 19.548H83.4319V20.5H83.1519C82.4986 20.5 81.9806 20.3273 81.5979 19.982C81.2153 19.6273 81.0239 19.044 81.0239 18.232V14.452H80.0439V13.5H81.0239V11.666ZM87.6384 17C87.6384 16.496 87.7317 16.0247 87.9184 15.586C88.1144 15.138 88.3757 14.7507 88.7024 14.424C89.0291 14.0973 89.4117 13.8407 89.8504 13.654C90.2984 13.458 90.7744 13.36 91.2784 13.36C91.7824 13.36 92.2537 13.458 92.6924 13.654C93.1404 13.8407 93.5277 14.0973 93.8544 14.424C94.1811 14.7507 94.4377 15.138 94.6244 15.586C94.8204 16.0247 94.9184 16.496 94.9184 17C94.9184 17.504 94.8204 17.98 94.6244 18.428C94.4377 18.8667 94.1811 19.2493 93.8544 19.576C93.5277 19.9027 93.1404 20.164 92.6924 20.36C92.2537 20.5467 91.7824 20.64 91.2784 20.64C90.7744 20.64 90.2984 20.5467 89.8504 20.36C89.4117 20.164 89.0291 19.9027 88.7024 19.576C88.3757 19.2493 88.1144 18.8667 87.9184 18.428C87.7317 17.98 87.6384 17.504 87.6384 17ZM91.2784 19.646C91.6517 19.646 91.9924 19.5807 92.3004 19.45C92.6177 19.31 92.8931 19.1233 93.1264 18.89C93.3597 18.6473 93.5417 18.3673 93.6724 18.05C93.8031 17.7233 93.8684 17.3733 93.8684 17C93.8684 16.6267 93.8031 16.2813 93.6724 15.964C93.5417 15.6373 93.3597 15.3573 93.1264 15.124C92.8931 14.8813 92.6177 14.6947 92.3004 14.564C91.9924 14.424 91.6517 14.354 91.2784 14.354C90.9051 14.354 90.5597 14.424 90.2424 14.564C89.9251 14.6947 89.6497 14.8813 89.4164 15.124C89.1924 15.3573 89.0151 15.6373 88.8844 15.964C88.7537 16.2813 88.6884 16.6267 88.6884 17C88.6884 17.3733 88.7537 17.7233 88.8844 18.05C89.0151 18.3673 89.1924 18.6473 89.4164 18.89C89.6497 19.1233 89.9251 19.31 90.2424 19.45C90.5597 19.5807 90.9051 19.646 91.2784 19.646ZM96.2495 13.5H97.2575V14.41C97.5375 14.074 97.8875 13.8173 98.3075 13.64C98.7275 13.4533 99.1335 13.36 99.5255 13.36C100.44 13.36 101.159 13.6073 101.681 14.102C102.213 14.5967 102.479 15.3713 102.479 16.426V20.5H101.457V16.622C101.457 15.8193 101.285 15.2453 100.939 14.9C100.594 14.5453 100.099 14.368 99.4555 14.368C99.2315 14.368 99.0075 14.41 98.7835 14.494C98.5595 14.5687 98.3495 14.6713 98.1535 14.802C97.9575 14.9233 97.7801 15.0587 97.6215 15.208C97.4628 15.3573 97.3415 15.5067 97.2575 15.656V20.5H96.2495V13.5Z" fill="black"/>
<path d="M130.925 40.4735H133.206V25.0574H130.925V40.4735ZM151.464 30.6105L148.85 37.2944H148.772L146.059 30.6105H143.603L147.671 39.9519L145.353 45.1485H147.73L154 30.6105H151.464ZM138.533 38.7224C137.785 38.7224 136.744 38.3463 136.744 37.4127C136.744 36.2239 138.04 35.7677 139.161 35.7677C140.163 35.7677 140.636 35.9859 141.244 36.2831C141.067 37.7112 139.849 38.7224 138.533 38.7224ZM138.808 30.2738C137.157 30.2738 135.446 31.0075 134.739 32.6341L136.763 33.4863C137.196 32.6341 138.001 32.3554 138.847 32.3554C140.026 32.3554 141.225 33.0694 141.244 34.3396V34.4975C140.831 34.2595 139.948 33.9031 138.866 33.9031C136.685 33.9031 134.463 35.1128 134.463 37.3733C134.463 39.4364 136.252 40.7658 138.256 40.7658C139.79 40.7658 140.636 40.0715 141.166 39.2576H141.244V40.4476H143.445V34.5369C143.445 31.8005 141.422 30.2738 138.808 30.2738ZM124.715 32.4874H121.472V27.2032H124.715C126.42 27.2032 127.388 28.6275 127.388 29.8446C127.388 31.0396 126.42 32.4874 124.715 32.4874ZM124.656 25.0574H119.193V40.4735H121.472V34.6331H124.656C127.183 34.6331 129.668 32.7858 129.668 29.8446C129.668 26.9035 127.183 25.0574 124.656 25.0574ZM94.8617 38.7249C93.2864 38.7249 91.9678 37.3942 91.9678 35.5666C91.9678 33.7193 93.2864 32.3678 94.8617 32.3678C96.4173 32.3678 97.6369 33.7193 97.6369 35.5666C97.6369 37.3942 96.4173 38.7249 94.8617 38.7249ZM97.4805 31.4737H97.4011C96.889 30.8583 95.9053 30.3022 94.6649 30.3022C92.0656 30.3022 89.6839 32.6058 89.6839 35.5666C89.6839 38.5066 92.0656 40.7917 94.6649 40.7917C95.9053 40.7917 96.889 40.2355 97.4011 39.5992H97.4805V40.3551C97.4805 42.3615 96.4173 43.4344 94.704 43.4344C93.306 43.4344 92.4396 42.4207 92.0852 41.5661L90.0969 42.401C90.6676 43.792 92.1842 45.5 94.704 45.5C97.3815 45.5 99.646 43.9104 99.646 40.037V30.6191H97.4805V31.4737ZM101.221 40.4735H103.505V25.0562H101.221V40.4735ZM106.871 35.3878C106.812 33.3617 108.426 32.3283 109.587 32.3283C110.494 32.3283 111.261 32.7846 111.517 33.4406L106.871 35.3878ZM113.959 33.6392C113.526 32.4676 112.206 30.3022 109.509 30.3022C106.832 30.3022 104.607 32.4269 104.607 35.5469C104.607 38.4868 106.812 40.7917 109.764 40.7917C112.147 40.7917 113.526 39.3217 114.097 38.4671L112.325 37.2746C111.734 38.149 110.927 38.7249 109.764 38.7249C108.604 38.7249 107.776 38.1884 107.245 37.1365L114.194 34.2348L113.959 33.6392ZM58.5902 31.9115V34.1361H63.8657C63.7081 35.3878 63.295 36.3016 62.6657 36.9367C61.897 37.7124 60.6957 38.567 58.5902 38.567C55.3407 38.567 52.8013 35.9243 52.8013 32.6465C52.8013 29.3674 55.3407 26.7259 58.5902 26.7259C60.3426 26.7259 61.6221 27.4214 62.5667 28.3155L64.1224 26.7456C62.8025 25.4742 61.0514 24.5 58.5902 24.5C54.1407 24.5 50.4 28.1564 50.4 32.6465C50.4 37.1365 54.1407 40.7917 58.5902 40.7917C60.9915 40.7917 62.8026 39.9963 64.2201 38.5066C65.678 37.0366 66.1302 34.971 66.1302 33.3013C66.1302 32.7846 66.0911 32.3086 66.0116 31.9115H58.5902ZM72.1292 38.7249C70.554 38.7249 69.1951 37.414 69.1951 35.5469C69.1951 33.6589 70.554 32.3678 72.1292 32.3678C73.7032 32.3678 75.0621 33.6589 75.0621 35.5469C75.0621 37.414 73.7032 38.7249 72.1292 38.7249ZM72.1292 30.3022C69.2537 30.3022 66.9111 32.5071 66.9111 35.5469C66.9111 38.567 69.2537 40.7917 72.1292 40.7917C75.0034 40.7917 77.3461 38.567 77.3461 35.5469C77.3461 32.5071 75.0034 30.3022 72.1292 30.3022ZM83.5101 38.7249C81.9349 38.7249 80.576 37.414 80.576 35.5469C80.576 33.6589 81.9349 32.3678 83.5101 32.3678C85.0853 32.3678 86.443 33.6589 86.443 35.5469C86.443 37.414 85.0853 38.7249 83.5101 38.7249ZM83.5101 30.3022C80.6358 30.3022 78.2932 32.5071 78.2932 35.5469C78.2932 38.567 80.6358 40.7917 83.5101 40.7917C86.3843 40.7917 88.727 38.567 88.727 35.5469C88.727 32.5071 86.3843 30.3022 83.5101 30.3022Z" fill="black"/>
<rect x="213" y="0.5" width="165" height="52" rx="8.4" fill="white"/>
<path d="M244.386 27.5684C244.403 26.2806 244.754 25.0178 245.405 23.8977C246.056 22.7775 246.987 21.8364 248.111 21.1619C247.397 20.1664 246.455 19.3472 245.36 18.7692C244.265 18.1913 243.047 17.8706 241.803 17.8326C239.149 17.5606 236.576 19.383 235.224 19.383C233.845 19.383 231.763 17.8596 229.521 17.9046C228.07 17.9504 226.657 18.3621 225.418 19.0998C224.179 19.8374 223.157 20.8758 222.451 22.1137C219.395 27.2802 221.675 34.8734 224.603 39.0496C226.068 41.0946 227.78 43.3789 230.02 43.2979C232.212 43.2092 233.031 41.9332 235.677 41.9332C238.299 41.9332 239.067 43.2979 241.352 43.2464C243.705 43.2092 245.187 41.1924 246.6 39.128C247.653 37.6709 248.463 36.0604 249 34.3563C247.633 33.792 246.467 32.8474 245.647 31.6403C244.826 30.4332 244.388 29.0171 244.386 27.5684Z" fill="black"/>
<path d="M240.069 15.0859C241.352 13.5827 241.984 11.6506 241.831 9.69995C239.871 9.90088 238.061 10.8152 236.761 12.2607C236.126 12.9669 235.639 13.7884 235.329 14.6784C235.019 15.5683 234.891 16.5092 234.954 17.4473C235.934 17.4571 236.903 17.2497 237.789 16.8407C238.676 16.4317 239.455 15.8317 240.069 15.0859Z" fill="black"/>
<path d="M260.932 10.68H262.999C263.713 10.68 264.368 10.7934 264.964 11.0202C265.561 11.2386 266.073 11.5452 266.502 11.94C266.93 12.3264 267.262 12.7926 267.497 13.3386C267.732 13.8762 267.85 14.46 267.85 15.09C267.85 15.72 267.732 16.308 267.497 16.854C267.27 17.3916 266.938 17.8578 266.502 18.2526C266.073 18.639 265.552 18.9456 264.939 19.1724C264.326 19.3908 263.637 19.5 262.873 19.5H260.932V10.68ZM261.877 11.562V18.618H262.621C263.335 18.618 263.956 18.5298 264.486 18.3534C265.023 18.177 265.468 17.9334 265.821 17.6226C266.182 17.3034 266.451 16.9296 266.628 16.5012C266.804 16.0644 266.892 15.594 266.892 15.09C266.892 14.5776 266.804 14.1072 266.628 13.6788C266.451 13.242 266.182 12.8682 265.821 12.5574C265.468 12.2466 265.023 12.003 264.486 11.8266C263.956 11.6502 263.335 11.562 262.621 11.562H261.877ZM268.61 16.35C268.61 15.8964 268.694 15.4722 268.862 15.0774C269.038 14.6742 269.273 14.3256 269.567 14.0316C269.861 13.7376 270.206 13.5066 270.601 13.3386C271.004 13.1622 271.432 13.074 271.886 13.074C272.339 13.074 272.764 13.1622 273.158 13.3386C273.562 13.5066 273.91 13.7376 274.204 14.0316C274.498 14.3256 274.729 14.6742 274.897 15.0774C275.074 15.4722 275.162 15.8964 275.162 16.35C275.162 16.8036 275.074 17.232 274.897 17.6352C274.729 18.03 274.498 18.3744 274.204 18.6684C273.91 18.9624 273.562 19.1976 273.158 19.374C272.764 19.542 272.339 19.626 271.886 19.626C271.432 19.626 271.004 19.542 270.601 19.374C270.206 19.1976 269.861 18.9624 269.567 18.6684C269.273 18.3744 269.038 18.03 268.862 17.6352C268.694 17.232 268.61 16.8036 268.61 16.35ZM271.886 18.7314C272.222 18.7314 272.528 18.6726 272.806 18.555C273.091 18.429 273.339 18.261 273.549 18.051C273.759 17.8326 273.923 17.5806 274.04 17.295C274.158 17.001 274.217 16.686 274.217 16.35C274.217 16.014 274.158 15.7032 274.04 15.4176C273.923 15.1236 273.759 14.8716 273.549 14.6616C273.339 14.4432 273.091 14.2752 272.806 14.1576C272.528 14.0316 272.222 13.9686 271.886 13.9686C271.55 13.9686 271.239 14.0316 270.953 14.1576C270.668 14.2752 270.42 14.4432 270.21 14.6616C270.008 14.8716 269.849 15.1236 269.731 15.4176C269.614 15.7032 269.555 16.014 269.555 16.35C269.555 16.686 269.614 17.001 269.731 17.295C269.849 17.5806 270.008 17.8326 270.21 18.051C270.42 18.261 270.668 18.429 270.953 18.555C271.239 18.6726 271.55 18.7314 271.886 18.7314ZM275.418 13.2H276.426L278.429 17.7234L280.433 13.011L282.537 17.7486L284.553 13.2H285.536L282.549 19.689L280.42 15.0396L278.404 19.689L275.418 13.2ZM286.351 13.2H287.258V14.019C287.51 13.7166 287.825 13.4856 288.203 13.326C288.581 13.158 288.947 13.074 289.3 13.074C290.123 13.074 290.77 13.2966 291.24 13.7418C291.719 14.187 291.958 14.8842 291.958 15.8334V19.5H291.038V16.0098C291.038 15.2874 290.883 14.7708 290.572 14.46C290.261 14.1408 289.816 13.9812 289.237 13.9812C289.035 13.9812 288.833 14.019 288.632 14.0946C288.43 14.1618 288.241 14.2542 288.065 14.3718C287.888 14.481 287.729 14.6028 287.586 14.7372C287.443 14.8716 287.334 15.006 287.258 15.1404V19.5H286.351V13.2ZM293.614 10.68H294.521V19.5H293.614V10.68ZM295.852 16.35C295.852 15.8964 295.936 15.4722 296.104 15.0774C296.281 14.6742 296.516 14.3256 296.81 14.0316C297.104 13.7376 297.448 13.5066 297.843 13.3386C298.246 13.1622 298.675 13.074 299.128 13.074C299.582 13.074 300.006 13.1622 300.401 13.3386C300.804 13.5066 301.153 13.7376 301.447 14.0316C301.741 14.3256 301.972 14.6742 302.14 15.0774C302.316 15.4722 302.404 15.8964 302.404 16.35C302.404 16.8036 302.316 17.232 302.14 17.6352C301.972 18.03 301.741 18.3744 301.447 18.6684C301.153 18.9624 300.804 19.1976 300.401 19.374C300.006 19.542 299.582 19.626 299.128 19.626C298.675 19.626 298.246 19.542 297.843 19.374C297.448 19.1976 297.104 18.9624 296.81 18.6684C296.516 18.3744 296.281 18.03 296.104 17.6352C295.936 17.232 295.852 16.8036 295.852 16.35ZM299.128 18.7314C299.464 18.7314 299.771 18.6726 300.048 18.555C300.334 18.429 300.582 18.261 300.792 18.051C301.002 17.8326 301.165 17.5806 301.283 17.295C301.401 17.001 301.459 16.686 301.459 16.35C301.459 16.014 301.401 15.7032 301.283 15.4176C301.165 15.1236 301.002 14.8716 300.792 14.6616C300.582 14.4432 300.334 14.2752 300.048 14.1576C299.771 14.0316 299.464 13.9686 299.128 13.9686C298.792 13.9686 298.482 14.0316 298.196 14.1576C297.91 14.2752 297.663 14.4432 297.453 14.6616C297.251 14.8716 297.091 15.1236 296.974 15.4176C296.856 15.7032 296.797 16.014 296.797 16.35C296.797 16.686 296.856 17.001 296.974 17.295C297.091 17.5806 297.251 17.8326 297.453 18.051C297.663 18.261 297.91 18.429 298.196 18.555C298.482 18.6726 298.792 18.7314 299.128 18.7314ZM308.655 18.681C308.067 19.311 307.353 19.626 306.513 19.626C306.059 19.626 305.631 19.542 305.228 19.374C304.833 19.1976 304.489 18.9624 304.195 18.6684C303.901 18.3744 303.665 18.03 303.489 17.6352C303.321 17.232 303.237 16.8036 303.237 16.35C303.237 15.8964 303.321 15.4722 303.489 15.0774C303.665 14.6742 303.901 14.3256 304.195 14.0316C304.489 13.7376 304.833 13.5066 305.228 13.3386C305.631 13.1622 306.059 13.074 306.513 13.074C307.353 13.074 308.067 13.389 308.655 14.019V13.2H309.562V19.5H308.655V18.681ZM308.655 15.1404C308.563 15.006 308.441 14.8674 308.29 14.7246C308.147 14.5818 307.983 14.4516 307.798 14.334C307.622 14.2164 307.424 14.1198 307.206 14.0442C306.988 13.9686 306.757 13.9308 306.513 13.9308C306.177 13.9308 305.866 13.9938 305.581 14.1198C305.295 14.2458 305.047 14.418 304.837 14.6364C304.627 14.8548 304.463 15.111 304.346 15.405C304.228 15.699 304.169 16.014 304.169 16.35C304.169 16.686 304.228 17.001 304.346 17.295C304.463 17.589 304.627 17.8452 304.837 18.0636C305.047 18.282 305.295 18.4542 305.581 18.5802C305.866 18.7062 306.177 18.7692 306.513 18.7692C306.757 18.7692 306.988 18.7356 307.206 18.6684C307.424 18.5928 307.622 18.5004 307.798 18.3912C307.983 18.2736 308.147 18.1434 308.29 18.0006C308.441 17.8494 308.563 17.7024 308.655 17.5596V15.1404ZM316.247 18.681C315.659 19.311 314.945 19.626 314.105 19.626C313.651 19.626 313.223 19.542 312.82 19.374C312.425 19.1976 312.081 18.9624 311.787 18.6684C311.493 18.3744 311.257 18.03 311.081 17.6352C310.913 17.232 310.829 16.8036 310.829 16.35C310.829 15.8964 310.913 15.4722 311.081 15.0774C311.257 14.6742 311.493 14.3256 311.787 14.0316C312.081 13.7376 312.425 13.5066 312.82 13.3386C313.223 13.1622 313.651 13.074 314.105 13.074C314.945 13.074 315.659 13.389 316.247 14.019V10.68H317.154V19.5H316.247V18.681ZM316.247 15.1404C316.155 15.006 316.033 14.8674 315.882 14.7246C315.739 14.5818 315.575 14.4516 315.39 14.334C315.214 14.2164 315.016 14.1198 314.798 14.0442C314.58 13.9686 314.349 13.9308 314.105 13.9308C313.769 13.9308 313.458 13.9938 313.173 14.1198C312.887 14.2458 312.639 14.418 312.429 14.6364C312.219 14.8548 312.055 15.111 311.938 15.405C311.82 15.699 311.761 16.014 311.761 16.35C311.761 16.686 311.82 17.001 311.938 17.295C312.055 17.589 312.219 17.8452 312.429 18.0636C312.639 18.282 312.887 18.4542 313.173 18.5802C313.458 18.7062 313.769 18.7692 314.105 18.7692C314.349 18.7692 314.58 18.7356 314.798 18.6684C315.016 18.5928 315.214 18.5004 315.39 18.3912C315.575 18.2736 315.739 18.1434 315.882 18.0006C316.033 17.8494 316.155 17.7024 316.247 17.5596V15.1404ZM321.372 16.35C321.372 15.8964 321.456 15.4722 321.624 15.0774C321.801 14.6742 322.036 14.3256 322.33 14.0316C322.624 13.7376 322.968 13.5066 323.363 13.3386C323.766 13.1622 324.195 13.074 324.648 13.074C325.102 13.074 325.526 13.1622 325.921 13.3386C326.324 13.5066 326.673 13.7376 326.967 14.0316C327.261 14.3256 327.492 14.6742 327.66 15.0774C327.836 15.4722 327.924 15.8964 327.924 16.35C327.924 16.8036 327.836 17.232 327.66 17.6352C327.492 18.03 327.261 18.3744 326.967 18.6684C326.673 18.9624 326.324 19.1976 325.921 19.374C325.526 19.542 325.102 19.626 324.648 19.626C324.195 19.626 323.766 19.542 323.363 19.374C322.968 19.1976 322.624 18.9624 322.33 18.6684C322.036 18.3744 321.801 18.03 321.624 17.6352C321.456 17.232 321.372 16.8036 321.372 16.35ZM324.648 18.7314C324.984 18.7314 325.291 18.6726 325.568 18.555C325.854 18.429 326.102 18.261 326.312 18.051C326.522 17.8326 326.685 17.5806 326.803 17.295C326.921 17.001 326.979 16.686 326.979 16.35C326.979 16.014 326.921 15.7032 326.803 15.4176C326.685 15.1236 326.522 14.8716 326.312 14.6616C326.102 14.4432 325.854 14.2752 325.568 14.1576C325.291 14.0316 324.984 13.9686 324.648 13.9686C324.312 13.9686 324.002 14.0316 323.716 14.1576C323.43 14.2752 323.183 14.4432 322.973 14.6616C322.771 14.8716 322.611 15.1236 322.494 15.4176C322.376 15.7032 322.317 16.014 322.317 16.35C322.317 16.686 322.376 17.001 322.494 17.295C322.611 17.5806 322.771 17.8326 322.973 18.051C323.183 18.261 323.43 18.429 323.716 18.555C324.002 18.6726 324.312 18.7314 324.648 18.7314ZM329.122 13.2H330.03V14.019C330.282 13.7166 330.597 13.4856 330.975 13.326C331.353 13.158 331.718 13.074 332.071 13.074C332.894 13.074 333.541 13.2966 334.011 13.7418C334.49 14.187 334.729 14.8842 334.729 15.8334V19.5H333.81V16.0098C333.81 15.2874 333.654 14.7708 333.343 14.46C333.033 14.1408 332.587 13.9812 332.008 13.9812C331.806 13.9812 331.605 14.019 331.403 14.0946C331.201 14.1618 331.012 14.2542 330.836 14.3718C330.66 14.481 330.5 14.6028 330.357 14.7372C330.214 14.8716 330.105 15.006 330.03 15.1404V19.5H329.122V13.2ZM339.463 11.5494H340.37V13.2H341.63V14.0568H340.37V17.3958C340.37 17.8578 340.454 18.1812 340.622 18.366C340.798 18.5508 341.05 18.6432 341.378 18.6432H341.63V19.5H341.378C340.79 19.5 340.324 19.3446 339.979 19.0338C339.635 18.7146 339.463 18.1896 339.463 17.4588V14.0568H338.581V13.2H339.463V11.5494ZM342.83 10.68H343.737V14.019C343.989 13.7166 344.304 13.4856 344.682 13.326C345.06 13.158 345.425 13.074 345.778 13.074C346.601 13.074 347.248 13.2966 347.719 13.7418C348.189 14.187 348.424 14.8842 348.424 15.8334V19.5H347.504V16.0098C347.504 15.2874 347.349 14.7708 347.038 14.46C346.736 14.1408 346.295 13.9812 345.715 13.9812C345.514 13.9812 345.312 14.019 345.11 14.0946C344.909 14.1618 344.72 14.2542 344.543 14.3718C344.367 14.481 344.207 14.6028 344.065 14.7372C343.922 14.8716 343.813 15.006 343.737 15.1404V19.5H342.83V10.68ZM355.788 17.862C355.654 18.1224 355.481 18.3618 355.271 18.5802C355.061 18.7986 354.826 18.9876 354.566 19.1472C354.314 19.2984 354.037 19.416 353.734 19.5C353.44 19.584 353.134 19.626 352.814 19.626C352.361 19.626 351.937 19.542 351.542 19.374C351.155 19.1976 350.819 18.9624 350.534 18.6684C350.248 18.3744 350.021 18.03 349.853 17.6352C349.694 17.232 349.614 16.8036 349.614 16.35C349.614 15.8964 349.694 15.4722 349.853 15.0774C350.021 14.6742 350.248 14.3256 350.534 14.0316C350.819 13.7376 351.155 13.5066 351.542 13.3386C351.937 13.1622 352.361 13.074 352.814 13.074C353.302 13.074 353.747 13.1622 354.15 13.3386C354.553 13.515 354.898 13.7628 355.183 14.082C355.469 14.4012 355.691 14.7918 355.851 15.2538C356.011 15.7074 356.09 16.2156 356.09 16.7784H350.584C350.635 17.064 350.723 17.3286 350.849 17.5722C350.975 17.8074 351.13 18.0132 351.315 18.1896C351.508 18.366 351.731 18.5046 351.983 18.6054C352.235 18.7062 352.512 18.7566 352.814 18.7566C353.201 18.7566 353.558 18.6768 353.885 18.5172C354.221 18.3576 354.499 18.1392 354.717 17.862H355.788ZM355.082 15.9216C355.057 15.6444 354.977 15.384 354.843 15.1404C354.717 14.8968 354.553 14.6868 354.352 14.5104C354.15 14.334 353.915 14.1954 353.646 14.0946C353.386 13.9938 353.108 13.9434 352.814 13.9434C352.512 13.9434 352.235 13.9938 351.983 14.0946C351.731 14.1954 351.508 14.334 351.315 14.5104C351.13 14.6868 350.975 14.8968 350.849 15.1404C350.723 15.384 350.635 15.6444 350.584 15.9216H355.082Z" fill="black"/>
<path d="M263.088 41.5H260.246L266.029 24.7041H269.155L274.926 41.5H271.972L270.484 36.8488H264.59L263.088 41.5ZM267.604 27.608H267.494L265.217 34.7078H269.856L267.604 27.608ZM282.77 41.6846C281.084 41.6846 279.805 40.8848 279.116 39.6912H279.017V45.8189H276.286V28.4939H278.943V30.4012H279.042C279.755 29.1584 281.084 28.3217 282.832 28.3217C285.748 28.3217 287.827 30.5242 287.827 34.4125V35.5691C287.827 39.4328 285.772 41.6846 282.77 41.6846ZM282.143 39.4328C283.878 39.4328 285.059 38.0424 285.059 35.4215V34.5109C285.059 31.9885 283.951 30.5488 282.093 30.5488C280.186 30.5488 278.993 32.0992 278.993 34.4986V35.4215C278.993 37.8824 280.198 39.4328 282.143 39.4328ZM296.656 41.6846C294.971 41.6846 293.691 40.8848 293.002 39.6912H292.903V45.8189H290.172V28.4939H292.83V30.4012H292.928C293.642 29.1584 294.971 28.3217 296.718 28.3217C299.634 28.3217 301.713 30.5242 301.713 34.4125V35.5691C301.713 39.4328 299.659 41.6846 296.656 41.6846ZM296.029 39.4328C297.764 39.4328 298.945 38.0424 298.945 35.4215V34.5109C298.945 31.9885 297.838 30.5488 295.98 30.5488C294.072 30.5488 292.879 32.0992 292.879 34.4986V35.4215C292.879 37.8824 294.085 39.4328 296.029 39.4328ZM307.374 36.8365H310.106C310.229 38.2885 311.509 39.5313 313.883 39.5313C316.061 39.5313 317.353 38.51 317.353 36.9227C317.353 35.643 316.492 34.9539 314.696 34.5232L311.939 33.8342C309.774 33.3297 307.83 32.0377 307.83 29.3061C307.83 26.0945 310.635 24.335 313.896 24.335C317.156 24.335 319.876 26.0945 319.937 29.2322H317.255C317.132 27.8049 316.037 26.6236 313.859 26.6236C311.939 26.6236 310.635 27.5342 310.635 29.0969C310.635 30.192 311.398 30.9795 312.961 31.3363L315.705 32.0131C318.227 32.6283 320.147 33.8219 320.147 36.6766C320.147 39.9742 317.476 41.8322 313.674 41.8322C308.998 41.8322 307.436 39.1006 307.374 36.8365ZM323.475 28.4939V25.3316H326.158V28.4939H328.692V30.6842H326.158V37.624C326.158 39.0391 326.687 39.4328 328.151 39.4328C328.385 39.4328 328.606 39.4328 328.766 39.4082V41.5C328.545 41.5369 328.028 41.5861 327.474 41.5861C324.312 41.5861 323.438 40.4541 323.438 37.8455V30.6842H321.642V28.4939H323.475ZM336.069 28.2725C339.81 28.2725 341.84 30.9057 341.84 34.4494V35.4953C341.84 39.1621 339.822 41.7215 336.069 41.7215C332.316 41.7215 330.274 39.1621 330.274 35.4953V34.4494C330.274 30.918 332.329 28.2725 336.069 28.2725ZM336.069 30.4627C334.039 30.4627 333.03 32.1238 333.03 34.4863V35.483C333.03 37.8086 334.027 39.5189 336.069 39.5189C338.112 39.5189 339.096 37.8209 339.096 35.483V34.4863C339.096 32.1115 338.1 30.4627 336.069 30.4627ZM344.148 41.5V28.4939H346.879V30.2043H346.978C347.31 29.3922 348.282 28.3094 350.091 28.3094C350.448 28.3094 350.755 28.334 351.014 28.3832V30.7949C350.78 30.7334 350.3 30.6965 349.845 30.6965C347.655 30.6965 346.916 32.05 346.916 33.7973V41.5H344.148ZM357.64 41.7215C354.158 41.7215 351.943 39.4205 351.943 35.5691V34.2525C351.943 30.6227 354.109 28.2725 357.529 28.2725C360.999 28.2725 363.091 30.7088 363.091 34.3756V35.6184H354.638V35.926C354.638 38.1162 355.819 39.5682 357.677 39.5682C359.067 39.5682 360.015 38.8791 360.347 37.7594H362.943C362.55 39.8635 360.852 41.7215 357.64 41.7215ZM354.638 33.7111H360.421V33.6865C360.421 31.8408 359.277 30.3889 357.542 30.3889C355.782 30.3889 354.638 31.8408 354.638 33.6865V33.7111Z" fill="black"/>
</svg>
